ffmpeg version N-86994-g92da230 Copyright (c) 2000-2017 the FFmpeg developers
  built with gcc 7.1.0 (GCC)
  configuration: --enable-gpl --enable-version3 --enable-cuda --enable-cuvid --enable-d3d11va --enable-dxva2 --enable-libmfx --enable-nvenc --enable-avisynth --enable-bzlib --enable-fontconfig --enable-frei0r --enable-gnutls --enable-iconv --enable-libass --enable-libbluray --enable-libbs2b --enable-libcaca --enable-libfreetype --enable-libgme --enable-libgsm --enable-libilbc --enable-libmodplug --enable-libmp3lame --enable-libopencore-amrnb --enable-libopencore-amrwb --enable-libopenh264 --enable-libopenjpeg --enable-libopus --enable-librtmp --enable-libsnappy --enable-libsoxr --enable-libspeex --enable-libtheora --enable-libtwolame --enable-libvidstab --enable-libvo-amrwbenc --enable-libvorbis --enable-libvpx --enable-libwavpack --enable-libwebp --enable-libx264 --enable-libx265 --enable-libxavs --enable-libxvid --enable-libzimg --enable-lzma --enable-zlib
  libavutil      55. 74.100 / 55. 74.100
  libavcodec     57.102.100 / 57.102.100
  libavformat    57. 76.100 / 57. 76.100
  libavdevice    57.  7.100 / 57.  7.100
  libavfilter     6. 99.100 /  6. 99.100
  libswscale      4.  7.102 /  4.  7.102
  libswresample   2.  8.100 /  2.  8.100
  libpostproc    54.  6.100 / 54.  6.100
Input #0, image2pipe, from 'pipe:':
  Duration: N/A, bitrate: N/A
    Stream #0:0: Video: ppm, rgb24, 320x240, 24 fps, 24 tbr, 24 tbn, 24 tbc
Stream mapping:
  Stream #0:0 -> #0:0 (ppm (native) -> h264 (libx264))
[libx264 @ 00000000029637c0] using cpu capabilities: MMX2 SSE2Fast SSSE3 SSE4.2 AVX FMA3 BMI2 AVX2
[libx264 @ 00000000029637c0] profile High, level 1.3
[libx264 @ 00000000029637c0] 264 - core 152 r2851 ba24899 - H.264/MPEG-4 AVC codec - Copyleft 2003-2017 - http://www.videolan.org/x264.html - options: cabac=1 ref=3 deblock=1:0:0 analyse=0x3:0x113 me=hex subme=7 psy=1 psy_rd=1.00:0.00 mixed_ref=1 me_range=16 chroma_me=1 trellis=1 8x8dct=1 cqm=0 deadzone=21,11 fast_pskip=1 chroma_qp_offset=-2 threads=7 lookahead_threads=1 sliced_threads=0 nr=0 decimate=1 interlaced=0 bluray_compat=0 constrained_intra=0 bframes=3 b_pyramid=2 b_adapt=1 b_bias=0 direct=1 weightb=1 open_gop=0 weightp=2 keyint=250 keyint_min=24 scenecut=40 intra_refresh=0 rc_lookahead=40 rc=abr mbtree=1 bitrate=400 ratetol=1.0 qcomp=0.60 qpmin=0 qpmax=69 qpstep=4 ip_ratio=1.40 aq=1:1.00
Output #0, mp4, to '.\mission_records\15309f64-0d56-462b-8a03-f888bba67469\video.mp4':
  Metadata:
    encoder         : Lavf57.76.100
    Stream #0:0: Video: h264 (libx264) (avc1 / 0x31637661), yuv420p, 320x240, q=-1--1, 400 kb/s, 24 fps, 12288 tbn, 24 tbc
    Metadata:
      encoder         : Lavc57.102.100 libx264
    Side data:
      cpb: bitrate max/min/avg: 0/0/400000 buffer size: 0 vbv_delay: -1
frame=   33 fps=0.0 q=0.0 size=       0kB time=00:00:00.00 bitrate=N/A speed=   0x    frame=   44 fps= 42 q=0.0 size=       0kB time=00:00:00.00 bitrate=N/A speed=   0x    frame=   55 fps= 34 q=29.0 size=       0kB time=00:00:00.04 bitrate=   9.2kbits/s speed=0.0261x    frame=   65 fps= 31 q=9.0 size=       0kB time=00:00:00.45 bitrate=   0.8kbits/s speed=0.218x    frame=   75 fps= 29 q=6.0 size=       0kB time=00:00:00.87 bitrate=   0.4kbits/s speed=0.336x    frame=   85 fps= 27 q=0.0 size=       0kB time=00:00:01.29 bitrate=   0.3kbits/s speed=0.416x    frame=   95 fps= 26 q=0.0 size=       0kB time=00:00:01.70 bitrate=   0.2kbits/s speed=0.468x    frame=  102 fps= 25 q=0.0 size=       0kB time=00:00:02.00 bitrate=   0.2kbits/s speed=0.481x    frame=  113 fps= 24 q=0.0 size=       0kB time=00:00:02.45 bitrate=   0.2kbits/s speed=0.523x    frame=  123 fps= 24 q=0.0 size=       0kB time=00:00:02.87 bitrate=   0.1kbits/s speed=0.552x    frame=  133 fps= 23 q=0.0 size=       0kB time=00:00:03.29 bitrate=   0.1kbits/s speed=0.577x    frame=  143 fps= 23 q=0.0 size=       0kB time=00:00:03.70 bitrate=   0.1kbits/s speed=0.597x    frame=  154 fps= 23 q=0.0 size=       0kB time=00:00:04.16 bitrate=   0.1kbits/s speed=0.617x    frame=  164 fps= 23 q=0.0 size=       0kB time=00:00:04.58 bitrate=   0.1kbits/s speed=0.632x    frame=  174 fps= 22 q=0.0 size=       0kB time=00:00:05.00 bitrate=   0.1kbits/s speed=0.645x    frame=  184 fps= 22 q=0.0 size=       0kB time=00:00:05.41 bitrate=   0.1kbits/s speed=0.656x    frame=  186 fps= 22 q=-1.0 Lsize=      33kB time=00:00:07.62 bitrate=  35.0kbits/s speed=0.898x    
video:30kB audio:0kB subtitle:0kB other streams:0kB global headers:0kB muxing overhead: 9.949954%
[libx264 @ 00000000029637c0] frame I:16    Avg QP: 1.28  size:  1227
[libx264 @ 00000000029637c0] frame P:50    Avg QP: 2.42  size:   144
[libx264 @ 00000000029637c0] frame B:120   Avg QP: 4.63  size:    24
[libx264 @ 00000000029637c0] consecutive B-frames: 10.2%  8.6%  8.1% 73.1%
[libx264 @ 00000000029637c0] mb I  I16..4: 80.8% 10.1%  9.1%
[libx264 @ 00000000029637c0] mb P  I16..4:  7.4%  1.7%  0.5%  P16..4:  1.7%  0.4%  0.2%  0.0%  0.0%    skip:88.1%
[libx264 @ 00000000029637c0] mb B  I16..4:  0.0%  0.0%  0.0%  B16..8:  1.2%  0.0%  0.0%  direct: 0.1%  skip:98.6%  L0:34.2% L1:65.3% BI: 0.4%
[libx264 @ 00000000029637c0] final ratefactor: -12.57
[libx264 @ 00000000029637c0] 8x8 transform intra:12.1% inter:34.0%
[libx264 @ 00000000029637c0] coded y,uvDC,uvAC intra: 5.1% 0.0% 0.0% inter: 0.2% 0.0% 0.0%
[libx264 @ 00000000029637c0] i16 v,h,dc,p: 93%  4%  3%  0%
[libx264 @ 00000000029637c0] i8 v,h,dc,ddl,ddr,vr,hd,vl,hu: 82%  1% 16%  0%  0%  0%  0%  0%  0%
[libx264 @ 00000000029637c0] i4 v,h,dc,ddl,ddr,vr,hd,vl,hu: 56% 14% 21%  3%  3%  0%  2%  0%  1%
[libx264 @ 00000000029637c0] i8c dc,h,v,p: 100%  0%  0%  0%
[libx264 @ 00000000029637c0] Weighted P-Frames: Y:12.0% UV:0.0%
[libx264 @ 00000000029637c0] ref P L0: 67.5%  4.7% 25.8%  2.0%
[libx264 @ 00000000029637c0] ref B L0: 80.3% 17.5%  2.2%
[libx264 @ 00000000029637c0] ref B L1: 92.6%  7.4%
[libx264 @ 00000000029637c0] kb/s:30.63
0:13.00 bitrate=   0.0kbits/s speed=0.758x    frame=  377 fps= 21 q=0.0 size=       0kB time=00:00:13.45 bitrate=   0.0kbits/s speed=0.76x    frame=  388 fps= 21 q=0.0 size=       0kB time=00:00:13.91 bitrate=   0.0kbits/s speed=0.762x    frame=  398 fps= 21 q=0.0 size=       0kB time=00:00:14.33 bitrate=   0.0kbits/s speed=0.764x    frame=  403 fps= 21 q=-1.0 Lsize=      88kB time=00:00:16.66 bitrate=  43.1kbits/s speed=0.869x    
video:82kB audio:0kB subtitle:0kB other streams:0kB global headers:0kB muxing overhead: 6.594163%
[libx264 @ 00000000029d37e0] frame I:45    Avg QP: 0.71  size:  1263
[libx264 @ 00000000029d37e0] frame P:110   Avg QP: 1.50  size:   171
[libx264 @ 00000000029d37e0] frame B:248   Avg QP: 3.21  size:    32
[libx264 @ 00000000029d37e0] consecutive B-frames: 14.4%  8.4%  6.7% 70.5%
[libx264 @ 00000000029d37e0] mb I  I16..4: 85.4%  4.6% 10.0%
[libx264 @ 00000000029d37e0] mb P  I16..4: 10.3%  0.7%  0.8%  P16..4:  1.5%  0.3%  0.2%  0.0%  0.0%    skip:86.2%
[libx264 @ 00000000029d37e0] mb B  I16..4:  0.0%  0.0%  0.0%  B16..8:  0.9%  0.0%  0.0%  direct: 0.1%  skip:98.9%  L0:41.5% L1:56.9% BI: 1.7%
[libx264 @ 00000000029d37e0] final ratefactor: -16.77
[libx264 @ 00000000029d37e0] 8x8 transform intra:5.1% inter:30.5%
[libx264 @ 00000000029d37e0] coded y,uvDC,uvAC intra: 5.4% 0.0% 0.0% inter: 0.2% 0.0% 0.0%
[libx264 @ 00000000029d37e0] i16 v,h,dc,p: 93%  4%  3%  0%
[libx264 @ 00000000029d37e0] i8 v,h,dc,ddl,ddr,vr,hd,vl,hu: 85%  3% 12%  0%  0%  0%  0%  0%  0%
[libx264 @ 00000000029d37e0] i4 v,h,dc,ddl,ddr,vr,hd,vl,hu: 56% 17% 19%  2%  2%  0%  2%  0%  1%
[libx264 @ 00000000029d37e0] i8c dc,h,v,p: 100%  0%  0%  0%
[libx264 @ 00000000029d37e0] Weighted P-Frames: Y:17.3% UV:0.0%
[libx264 @ 00000000029d37e0] ref P L0: 58.1%  4.0% 30.2%  7.7%
[libx264 @ 00000000029d37e0] ref B L0: 92.9%  5.5%  1.6%
[libx264 @ 00000000029d37e0] ref B L1: 99.3%  0.7%
[libx264 @ 00000000029d37e0] kb/s:39.79
ate=   0.0kbits/s speed=0.784x    frame=  578 fps= 21 q=0.0 size=       0kB time=00:00:21.83 bitrate=   0.0kbits/s speed=0.785x    frame=  588 fps= 21 q=0.0 size=       0kB time=00:00:22.25 bitrate=   0.0kbits/s speed=0.785x    frame=  598 fps= 21 q=0.0 size=       0kB time=00:00:22.66 bitrate=   0.0kbits/s speed=0.786x    frame=  608 fps= 21 q=0.0 size=       0kB time=00:00:23.08 bitrate=   0.0kbits/s speed=0.787x    frame=  618 fps= 21 q=0.0 size=       0kB time=00:00:23.50 bitrate=   0.0kbits/s speed=0.788x    frame=  629 fps= 21 q=0.0 size=       0kB time=00:00:23.95 bitrate=   0.0kbits/s speed=0.789x    frame=  640 fps= 21 q=0.0 size=       0kB time=00:00:24.41 bitrate=   0.0kbits/s speed=0.789x    frame=  650 fps= 21 q=0.0 size=       0kB time=00:00:24.83 bitrate=   0.0kbits/s speed=0.79x    frame=  661 fps= 21 q=0.0 size=       0kB time=00:00:25.29 bitrate=   0.0kbits/s speed=0.791x    frame=  671 fps= 21 q=0.0 size=       0kB time=00:00:25.70 bitrate=   0.0kbits/s speed=0.791x    frame=  681 fps= 21 q=0.0 size=       0kB time=00:00:26.12 bitrate=   0.0kbits/s speed=0.792x    frame=  692 fps= 21 q=0.0 size=       0kB time=00:00:26.58 bitrate=   0.0kbits/s speed=0.793x    frame=  702 fps= 21 q=0.0 size=       0kB time=00:00:27.00 bitrate=   0.0kbits/s speed=0.793x    frame=  712 fps= 21 q=0.0 size=       0kB time=00:00:27.41 bitrate=   0.0kbits/s speed=0.794x    frame=  722 fps= 21 q=0.0 size=       0kB time=00:00:27.83 bitrate=   0.0kbits/s speed=0.794x    frame=  732 fps= 21 q=0.0 size=       0kB time=00:00:28.25 bitrate=   0.0kbits/s speed=0.795x    frame=  743 fps= 21 q=0.0 size=       0kB time=00:00:28.70 bitrate=   0.0kbits/s speed=0.796x    frame=  753 fps= 21 q=0.0 size=       0kB time=00:00:29.12 bitrate=   0.0kbits/s speed=0.796x    frame=  764 fps= 21 q=0.0 size=       0kB time=00:00:29.58 bitrate=   0.0kbits/s speed=0.797x    frame=  774 fps= 21 q=0.0 size=       0kB time=00:00:30.00 bitrate=   0.0kbits/s speed=0.797x    frame=  784 fps= 21 q=0.0 size=       0kB time=00:00:30.41 bitrate=   0.0kbits/s speed=0.798x    frame=  794 fps= 21 q=0.0 size=       0kB time=00:00:30.83 bitrate=   0.0kbits/s speed=0.798x    frame=  804 fps= 21 q=0.0 size=       0kB time=00:00:31.25 bitrate=   0.0kbits/s speed=0.798x    frame=  814 fps= 21 q=0.0 size=       0kB time=00:00:31.66 bitrate=   0.0kbits/s speed=0.799x    frame=  825 fps= 21 q=0.0 size=       0kB time=00:00:32.12 bitrate=   0.0kbits/s speed=0.799x    frame=  835 fps= 21 q=0.0 size=       0kB time=00:00:32.54 bitrate=   0.0kbits/s speed= 0.8x    frame=  846 fps= 21 q=0.0 size=       0kB time=00:00:33.00 bitrate=   0.0kbits/s speed= 0.8x    frame=  856 fps= 21 q=0.0 size=       0kB time=00:00:33.41 bitrate=   0.0kbits/s speed=0.801x    frame=  866 fps= 21 q=0.0 size=       0kB time=00:00:33.83 bitrate=   0.0kbits/s speed=0.801x    frame=  876 fps= 20 q=0.0 size=       0kB time=00:00:34.25 bitrate=   0.0kbits/s speed=0.801x    frame=  887 fps= 20 q=0.0 size=       0kB time=00:00:34.70 bitrate=   0.0kbits/s speed=0.802x    frame=  897 fps= 20 q=0.0 size=       0kB time=00:00:35.12 bitrate=   0.0kbits/s speed=0.802x    frame=  907 fps= 20 q=0.0 size=       0kB time=00:00:35.54 bitrate=   0.0kbits/s speed=0.802x    frame=  917 fps= 20 q=0.0 size=       0kB time=00:00:35.95 bitrate=   0.0kbits/s speed=0.803x    frame=  928 fps= 20 q=0.0 size=       0kB time=00:00:36.41 bitrate=   0.0kbits/s speed=0.803x    frame=  938 fps= 20 q=0.0 size=       0kB time=00:00:36.83 bitrate=   0.0kbits/s speed=0.803x    frame=  948 fps= 20 q=0.0 size=       0kB time=00:00:37.25 bitrate=   0.0kbits/s speed=0.804x    frame=  958 fps= 20 q=0.0 size=       0kB time=00:00:37.66 bitrate=   0.0kbits/s speed=0.804x    frame=  968 fps= 20 q=0.0 size=       0kB time=00:00:38.08 bitrate=   0.0kbits/s speed=0.804x    frame=  978 fps= 20 q=0.0 size=       0kB time=00:00:38.50 bitrate=   0.0kbits/s speed=0.805x    frame=  988 fps= 20 q=0.0 size=       0kB time=00:00:38.91 bitrate=   0.0kbits/s speed=0.805x    frame=  998 fps= 20 q=0.0 size=       0kB time=00:00:39.33 bitrate=   0.0kbits/s speed=0.805x    frame= 1009 fps= 20 q=0.0 size=       0kB time=00:00:39.79 bitrate=   0.0kbits/s speed=0.806x    frame= 1019 fps= 20 q=0.0 size=       0kB time=00:00:40.20 bitrate=   0.0kbits/s speed=0.806x    frame= 1030 fps= 20 q=0.0 size=       0kB time=00:00:40.66 bitrate=   0.0kbits/s speed=0.806x    frame= 1040 fps= 20 q=0.0 size=       0kB time=00:00:41.08 bitrate=   0.0kbits/s speed=0.806x    frame= 1050 fps= 20 q=0.0 size=       0kB time=00:00:41.50 bitrate=   0.0kbits/s speed=0.807x    frame= 1060 fps= 20 q=0.0 size=       0kB time=00:00:41.91 bitrate=   0.0kbits/s speed=0.807x    frame= 1070 fps= 20 q=0.0 size=       0kB time=00:00:42.33 bitrate=   0.0kbits/s speed=0.807x    frame= 1080 fps= 20 q=0.0 size=       0kB time=00:00:42.75 bitrate=   0.0kbits/s speed=0.807x    frame= 1090 fps= 20 q=0.0 size=       0kB time=00:00:43.16 bitrate=   0.0kbits/s speed=0.808x    frame= 1100 fps= 20 q=0.0 size=       0kB time=00:00:43.58 bitrate=   0.0kbits/s speed=0.808x    frame= 1110 fps= 20 q=0.0 size=       0kB time=00:00:44.00 bitrate=   0.0kbits/s speed=0.808x    frame= 1120 fps= 20 q=0.0 size=       0kB time=00:00:44.41 bitrate=   0.0kbits/s speed=0.808x    frame= 1131 fps= 20 q=0.0 size=       0kB time=00:00:44.87 bitrate=   0.0kbits/s speed=0.808x    frame= 1141 fps= 20 q=0.0 size=       0kB time=00:00:45.29 bitrate=   0.0kbits/s speed=0.809x    frame= 1151 fps= 20 q=0.0 size=       0kB time=00:00:45.70 bitrate=   0.0kbits/s speed=0.809x    frame= 1161 fps= 20 q=0.0 size=       0kB time=00:00:46.12 bitrate=   0.0kbits/s speed=0.809x    frame= 1172 fps= 20 q=0.0 size=       0kB time=00:00:46.58 bitrate=   0.0kbits/s speed=0.809x    frame= 1183 fps= 20 q=0.0 size=       0kB time=00:00:47.04 bitrate=   0.0kbits/s speed=0.81x    frame= 1189 fps= 20 q=-1.0 Lsize=      92kB time=00:00:49.41 bitrate=  15.3kbits/s speed=0.845x    
video:77kB audio:0kB subtitle:0kB other streams:0kB global headers:0kB muxing overhead: 18.970526%
[libx264 @ 00000000029837e0] frame I:31    Avg QP: 0.76  size:  1448
[libx264 @ 00000000029837e0] frame P:304   Avg QP: 0.70  size:    64
[libx264 @ 00000000029837e0] frame B:854   Avg QP: 2.10  size:    17
[libx264 @ 00000000029837e0] consecutive B-frames:  3.8%  0.8%  1.5% 93.9%
[libx264 @ 00000000029837e0] mb I  I16..4: 86.4%  2.9% 10.7%
[libx264 @ 00000000029837e0] mb P  I16..4:  2.1%  0.2%  0.2%  P16..4:  0.1%  0.0%  0.0%  0.0%  0.0%    skip:97.3%
[libx264 @ 00000000029837e0] mb B  I16..4:  0.0%  0.0%  0.0%  B16..8:  0.1%  0.0%  0.0%  direct: 0.0%  skip:99.9%  L0:40.8% L1:59.2% BI: 0.0%
[libx264 @ 00000000029837e0] final ratefactor: -27.51
[libx264 @ 00000000029837e0] 8x8 transform intra:3.9% inter:27.7%
[libx264 @ 00000000029837e0] coded y,uvDC,uvAC intra: 5.6% 0.0% 0.0% inter: 0.0% 0.0% 0.0%
[libx264 @ 00000000029837e0] i16 v,h,dc,p: 94%  2%  3%  0%
[libx264 @ 00000000029837e0] i8 v,h,dc,ddl,ddr,vr,hd,vl,hu: 86%  2% 12%  0%  0%  0%  0%  0%  0%
[libx264 @ 00000000029837e0] i4 v,h,dc,ddl,ddr,vr,hd,vl,hu: 55% 13% 22%  3%  3%  0%  2%  0%  1%
[libx264 @ 00000000029837e0] i8c dc,h,v,p: 100%  0%  0%  0%
[libx264 @ 00000000029837e0] Weighted P-Frames: Y:6.9% UV:0.0%
[libx264 @ 00000000029837e0] ref P L0: 69.3% 20.8%  9.3%  0.6%
[libx264 @ 00000000029837e0] ref B L0: 74.1% 25.9%
[libx264 @ 00000000029837e0] kb/s:12.67
bits/s    frame= 1569 fps= 20 q=0.0 size=     208kB time=00:01:03.20 bitrate=  27.0kbits/s    frame= 1579 fps= 20 q=0.0 size=     208kB time=00:01:03.62 bitrate=  26.8kbits/s    frame= 1590 fps= 20 q=0.0 size=     208kB time=00:01:04.08 bitrate=  26.6kbits/s    frame= 1600 fps= 20 q=0.0 size=     209kB time=00:01:04.50 bitrate=  26.6kbits/s    frame= 1611 fps= 20 q=0.0 size=     210kB time=00:01:04.95 bitrate=  26.4kbits/s    frame= 1622 fps= 20 q=0.0 size=     210kB time=00:01:05.41 bitrate=  26.3kbits/s    frame= 1633 fps= 20 q=0.0 size=     213kB time=00:01:05.87 bitrate=  26.5kbits/s    frame= 1644 fps= 20 q=0.0 size=     213kB time=00:01:06.33 bitrate=  26.4kbits/s    frame= 1654 fps= 20 q=0.0 size=     215kB time=00:01:06.75 bitrate=  26.4kbits/s    frame= 1665 fps= 20 q=0.0 size=     216kB time=00:01:07.20 bitrate=  26.3kbits/s    frame= 1675 fps= 20 q=0.0 size=     217kB time=00:01:07.62 bitrate=  26.3kbits/s    frame= 1686 fps= 20 q=0.0 size=     218kB time=00:01:08.08 bitrate=  26.3kbits/s    frame= 1697 fps= 20 q=0.0 size=     220kB time=00:01:08.54 bitrate=  26.2kbits/s    frame= 1708 fps= 20 q=0.0 size=     220kB time=00:01:09.00 bitrate=  26.1kbits/s    frame= 1719 fps= 20 q=0.0 size=     222kB time=00:01:09.45 bitrate=  26.1kbits/s    frame= 1729 fps= 20 q=0.0 size=     222kB time=00:01:09.87 bitrate=  26.0kbits/s    frame= 1739 fps= 20 q=0.0 size=     223kB time=00:01:10.29 bitrate=  26.0kbits/s    frame= 1750 fps= 20 q=0.0 size=     223kB time=00:01:10.75 bitrate=  25.8kbits/s    frame= 1760 fps= 20 q=0.0 size=     225kB time=00:01:11.16 bitrate=  25.9kbits/s    frame= 1771 fps= 20 q=0.0 size=     226kB time=00:01:11.62 bitrate=  25.9kbits/s    frame= 1781 fps= 20 q=0.0 size=     227kB time=00:01:12.04 bitrate=  25.9kbits/s    frame= 1792 fps= 20 q=0.0 size=     228kB time=00:01:12.50 bitrate=  25.8kbits/s    frame= 1802 fps= 20 q=0.0 size=     230kB time=00:01:12.91 bitrate=  25.8kbits/s    frame= 1812 fps= 20 q=0.0 size=     232kB time=00:01:13.33 bitrate=  25.9kbits/s    frame= 1823 fps= 20 q=0.0 size=     232kB time=00:01:13.79 bitrate=  25.8kbits/s    frame= 1834 fps= 20 q=0.0 size=     234kB time=00:01:14.25 bitrate=  25.8kbits/s    frame= 1845 fps= 20 q=0.0 size=     237kB time=00:01:14.70 bitrate=  26.0kbits/s    frame= 1856 fps= 20 q=0.0 size=     237kB time=00:01:15.16 bitrate=  25.9kbits/s    frame= 1867 fps= 20 q=0.0 size=     239kB time=00:01:15.62 bitrate=  25.9kbits/s    frame= 1877 fps= 20 q=0.0 size=     241kB time=00:01:16.04 bitrate=  26.0kbits/s    frame= 1887 fps= 20 q=0.0 size=     243kB time=00:01:16.45 bitrate=  26.0kbits/s    frame= 1897 fps= 20 q=0.0 size=     244kB time=00:01:16.87 bitrate=  26.0kbits/s    frame= 1908 fps= 20 q=0.0 size=     244kB time=00:01:17.33 bitrate=  25.9kbits/s    frame= 1919 fps= 20 q=0.0 size=     246kB time=00:01:17.79 bitrate=  26.0kbits/s    frame= 1930 fps= 20 q=0.0 size=     249kB time=00:01:18.25 bitrate=  26.0kbits/s    frame= 1940 fps= 20 q=0.0 size=     250kB time=00:01:18.66 bitrate=  26.0kbits/s    frame= 1951 fps= 20 q=0.0 size=     250kB time=00:01:19.12 bitrate=  25.9kbits/s    frame= 1961 fps= 20 q=0.0 size=     252kB time=00:01:19.54 bitrate=  26.0kbits/s    frame= 1971 fps= 20 q=0.0 size=     254kB time=00:01:19.95 bitrate=  26.0kbits/s    frame= 1982 fps= 20 q=0.0 size=     255kB time=00:01:20.41 bitrate=  26.0kbits/s    frame= 1993 fps= 20 q=0.0 size=     255kB time=00:01:20.87 bitrate=  25.9kbits/s    frame= 2004 fps= 20 q=0.0 size=     257kB time=00:01:21.33 bitrate=  25.8kbits/s    frame= 2014 fps= 20 q=0.0 size=     258kB time=00:01:21.75 bitrate=  25.9kbits/s    frame= 2025 fps= 20 q=0.0 size=     260kB time=00:01:22.20 bitrate=  25.9kbits/s    frame= 2036 fps= 20 q=0.0 size=     261kB time=00:01:22.66 bitrate=  25.8kbits/s    frame= 2046 fps= 20 q=0.0 size=     261kB time=00:01:23.08 bitrate=  25.7kbits/s    frame= 2056 fps= 20 q=0.0 size=     261kB time=00:01:23.50 bitrate=  25.6kbits/s    frame= 2066 fps= 20 q=0.0 size=     261kB time=00:01:23.91 bitrate=  25.5kbits/s    frame= 2076 fps= 20 q=0.0 size=     261kB time=00:01:24.33 bitrate=  25.4kbits/s    frame= 2087 fps= 20 q=0.0 size=     263kB time=00:01:24.79 bitrate=  25.4kbits/s    frame= 2098 fps= 20 q=0.0 size=     265kB time=00:01:25.25 bitrate=  25.4kbits/s    frame= 2108 fps= 20 q=0.0 size=     266kB time=00:01:25.66 bitrate=  25.5kbits/s    frame= 2118 fps= 20 q=0.0 size=     267kB time=00:01:26.08 bitrate=  25.4kbits/s    frame= 2129 fps= 20 q=0.0 size=     268kB time=00:01:26.54 bitrate=  25.4kbits/s    frame= 2139 fps= 20 q=0.0 size=     270kB time=00:01:26.95 bitrate=  25.5kbits/s    frame= 2150 fps= 20 q=0.0 size=     272kB time=00:01:27.41 bitrate=  25.5kbits/s    frame= 2161 fps= 20 q=0.0 size=     273kB time=00:01:27.87 bitrate=  25.4kbits/s    frame= 2172 fps= 20 q=0.0 size=     274kB time=00:01:28.33 bitrate=  25.5kbits/s    frame= 2182 fps= 20 q=0.0 size=     275kB time=00:01:28.75 bitrate=  25.4kbits/s    frame= 2193 fps= 20 q=0.0 size=     275kB time=00:01:29.20 bitrate=  25.2kbits/s    frame= 2204 fps= 20 q=0.0 size=     275kB time=00:01:29.66 bitrate=  25.1kbits/s    frame= 2214 fps= 20 q=0.0 size=     275kB time=00:01:30.08 bitrate=  25.0kbits/s    frame= 2225 fps= 20 q=0.0 size=     277kB time=00:01:30.54 bitrate=  25.1kbits/s    frame= 2235 fps= 20 q=0.0 size=     278kB time=00:01:30.95 bitrate=  25.0kbits/s    frame= 2246 fps= 20 q=0.0 size=     279kB time=00:01:31.41 bitrate=  25.0kbits/s    frame= 2257 fps= 20 q=0.0 size=     280kB time=00:01:31.87 bitrate=  25.0kbits/s    frame= 2267 fps= 20 q=0.0 size=     282kB time=00:01:32.29 bitrate=  25.0kbits/s    frame= 2277 fps= 20 q=0.0 size=     282kB time=00:01:32.70 bitrate=  24.9kbits/s    frame= 2288 fps= 20 q=0.0 size=     282kB time=00:01:33.16 bitrate=  24.8kbits/s    frame= 2299 fps= 20 q=0.0 size=     285kB time=00:01:33.62 bitrate=  24.9kbits/s    frame= 2309 fps= 20 q=0.0 size=     285kB time=00:01:34.04 bitrate=  24.8kbits/s    frame= 2319 fps= 20 q=0.0 size=     286kB time=00:01:34.45 bitrate=  24.8kbits/s    frame= 2329 fps= 20 q=0.0 size=     286kB time=00:01:34.87 bitrate=  24.7kbits/s    frame= 2339 fps= 20 q=0.0 size=     288kB time=00:01:35.29 bitrate=  24.8kbits/s    frame= 2350 fps= 20 q=0.0 size=     289kB time=00:01:35.75 bitrate=  24.7kbits/s    frame= 2361 fps= 20 q=0.0 size=     291kB time=00:01:36.20 bitrate=  24.8kbits/s    frame= 2372 fps= 20 q=0.0 size=     292kB time=00:01:36.66 bitrate=  24.8kbits/s    frame= 2383 fps= 20 q=0.0 size=     293kB time=00:01:37.12 bitrate=  24.7kbits/s    frame= 2393 fps= 20 q=0.0 size=     294kB time=00:01:37.54 bitrate=  24.7kbits/s    frame= 2404 fps= 20 q=0.0 size=     294kB time=00:01:38.00 bitrate=  24.6kbits/s    frame= 2414 fps= 20 q=0.0 size=     294kB time=00:01:38.41 bitrate=  24.5kbits/s    frame= 2424 fps= 20 q=0.0 size=     295kB time=00:01:38.83 bitrate=  24.5kbits/s    frame= 2434 fps= 20 q=0.0 size=     296kB time=00:01:39.25 bitrate=  24.4kbits/s    frame= 2445 fps= 20 q=0.0 size=     296kB time=00:01:39.70 bitrate=  24.3kbits/s    frame= 2455 fps= 20 q=0.0 size=     297kB time=00:01:40.12 bitrate=  24.3kbits/s    frame= 2465 fps= 20 q=0.0 size=     297kB time=00:01:40.54 bitrate=  24.2kbits/s    frame= 2475 fps= 20 q=0.0 size=     297kB time=00:01:40.95 bitrate=  24.1kbits/s    frame= 2485 fps= 20 q=0.0 size=     300kB time=00:01:41.37 bitrate=  24.2kbits/s    frame= 2495 fps= 20 q=0.0 size=     300kB time=00:01:41.79 bitrate=  24.2kbits/s    frame= 2505 fps= 20 q=0.0 size=     302kB time=00:01:42.20 bitrate=  24.2kbits/s    frame= 2516 fps= 20 q=0.0 size=     303kB time=00:01:42.66 bitrate=  24.1kbits/s    frame= 2526 fps= 20 q=0.0 size=     303kB time=00:01:43.08 bitrate=  24.1kbits/s    frame= 2537 fps= 20 q=0.0 size=     304kB time=00:01:43.54 bitrate=  24.1kbits/s    frame= 2548 fps= 20 q=0.0 size=     306kB time=00:01:44.00 bitrate=  24.1kbits/s    frame= 2559 fps= 20 q=0.0 size=     307kB time=00:01:44.45 bitrate=  24.1kbits/s    frame= 2570 fps= 20 q=0.0 size=     308kB time=00:01:44.91 bitrate=  24.0kbits/s    frame= 2580 fps= 20 q=0.0 size=     309kB time=00:01:45.33 bitrate=  24.0kbits/s    frame= 2591 fps= 20 q=0.0 size=     312kB time=00:01:45.79 bitrate=  24.1kbits/s    frame= 2601 fps= 20 q=0.0 size=     312kB time=00:01:46.20 bitrate=  24.0kbits/s    frame= 2612 fps= 20 q=0.0 size=     312kB time=00:01:46.66 bitrate=  24.0kbits/s    frame= 2622 fps= 20 q=0.0 size=     314kB time=00:01:47.08 bitrate=  24.0kbits/s    frame= 2632 fps= 20 q=0.0 size=     314kB time=00:01:47.50 bitrate=  23.9kbits/s    frame= 2642 fps= 20 q=0.0 size=     316kB time=00:01:47.91 bitrate=  24.0kbits/s    frame= 2653 fps= 20 q=0.0 size=     317kB time=00:01:48.37 bitrate=  24.0kbits/s    frame= 2663 fps= 20 q=0.0 size=     317kB time=00:01:48.79 bitrate=  23.9kbits/s    frame= 2674 fps= 20 q=0.0 size=     319kB time=00:01:49.25 bitrate=  23.9kbits/s    frame= 2684 fps= 20 q=0.0 size=     319kB time=00:01:49.66 bitrate=  23.8kbits/s    frame= 2695 fps= 20 q=0.0 size=     319kB time=00:01:50.12 bitrate=  23.7kbits/s    frame= 2706 fps= 20 q=0.0 size=     321kB time=00:01:50.58 bitrate=  23.8kbits/s    frame= 2717 fps= 20 q=0.0 size=     322kB time=00:01:51.04 bitrate=  23.7kbits/s    frame= 2728 fps= 20 q=0.0 size=     325kB time=00:01:51.50 bitrate=  23.9kbits/s    frame= 2739 fps= 20 q=0.0 size=     326kB time=00:01:51.95 bitrate=  23.9kbits/s    frame= 2750 fps= 20 q=0.0 size=     327kB time=00:01:52.41 bitrate=  23.8kbits/s    frame= 2760 fps= 20 q=0.0 size=     327kB time=00:01:52.83 bitrate=  23.7kbits/s    frame= 2771 fps= 20 q=0.0 size=     329kB time=00:01:53.29 bitrate=  23.8kbits/s    frame= 2781 fps= 20 q=0.0 size=     331kB time=00:01:53.70 bitrate=  23.9kbits/s    frame= 2791 fps= 20 q=0.0 size=     334kB time=00:01:54.12 bitrate=  24.0kbits/s    frame= 2801 fps= 20 q=0.0 size=     334kB time=00:01:54.54 bitrate=  23.9kbits/s    frame= 2812 fps= 20 q=0.0 size=     334kB time=00:01:55.00 bitrate=  23.8kbits/s    frame= 2822 fps= 20 q=0.0 size=     336kB time=00:01:55.41 bitrate=  23.8kbits/s    frame= 2833 fps= 20 q=0.0 size=     337kB time=00:01:55.87 bitrate=  23.9kbits/s    frame= 2844 fps= 20 q=0.0 size=     338kB time=00:01:56.33 bitrate=  23.8kbits/s    frame= 2855 fps= 20 q=0.0 size=     339kB time=00:01:56.79 bitrate=  23.8kbits/s    frame= 2866 fps= 20 q=0.0 size=     339kB time=00:01:57.25 bitrate=  23.7kbits/s    frame= 2877 fps= 20 q=0.0 size=     340kB time=00:01:57.70 bitrate=  23.6kbits/s    frame= 2887 fps= 20 q=0.0 size=     341kB time=00:01:58.12 bitrate=  23.7kbits/s    frame= 2897 fps= 20 q=0.0 size=     343kB time=00:01:58.54 bitrate=  23.7kbits/s    frame= 2907 fps= 20 q=0.0 size=     344kB time=00:01:58.95 bitrate=  23.7kbits/s    frame= 2918 fps= 20 q=0.0 size=     346kB time=00:01:59.41 bitrate=  23.8kbits/s    frame= 2928 fps= 20 q=0.0 size=     347kB time=00:01:59.83 bitrate=  23.8kbits/s    frame= 2938 fps= 20 q=0.0 size=     348kB time=00:02:00.25 bitrate=  23.7kbits/s    frame= 2948 fps= 20 q=0.0 size=     350kB time=00:02:00.66 bitrate=  23.8kbits/s    frame= 2959 fps= 20 q=0.0 size=     352kB time=00:02:01.12 bitrate=  23.8kbits/s    frame= 2969 fps= 20 q=0.0 size=     353kB time=00:02:01.54 bitrate=  23.8kbits/s    frame= 2980 fps= 20 q=0.0 size=     354kB time=00:02:02.00 bitrate=  23.8kbits/s    frame= 2990 fps= 20 q=0.0 size=     354kB time=00:02:02.41 bitrate=  23.7kbits/s    frame= 3001 fps= 20 q=0.0 size=     354kB time=00:02:02.87 bitrate=  23.6kbits/s    frame= 3011 fps= 20 q=0.0 size=     356kB time=00:02:03.29 bitrate=  23.7kbits/s    frame= 3022 fps= 20 q=0.0 size=     358kB time=00:02:03.75 bitrate=  23.7kbits/s    frame= 3032 fps= 20 q=0.0 size=     359kB time=00:02:04.16 bitrate=  23.7kbits/s    frame= 3042 fps= 20 q=0.0 size=     360kB time=00:02:04.58 bitrate=  23.7kbits/s    frame= 3052 fps= 20 q=0.0 size=     363kB time=00:02:05.00 bitrate=  23.8kbits/s    frame= 3063 fps= 20 q=0.0 size=     365kB time=00:02:05.45 bitrate=  23.8kbits/s    frame= 3073 fps= 20 q=0.0 size=     367kB time=00:02:05.87 bitrate=  23.9kbits/s    frame= 3084 fps= 20 q=0.0 size=     368kB time=00:02:06.33 bitrate=  23.8kbits/s    frame= 3095 fps= 20 q=0.0 size=     368kB time=00:02:06.79 bitrate=  23.8kbits/s    frame= 3105 fps= 20 q=0.0 size=     370kB time=00:02:07.20 bitrate=  23.8kbits/s    frame= 3115 fps= 20 q=0.0 size=     371kB time=00:02:07.62 bitrate=  23.8kbits/s    frame= 3126 fps= 20 q=0.0 size=     373kB time=00:02:08.08 bitrate=  23.9kbits/s    frame= 3136 fps= 20 q=0.0 size=     374kB time=00:02:08.50 bitrate=  23.8kbits/s    frame= 3146 fps= 20 q=0.0 size=     375kB time=00:02:08.91 bitrate=  23.9kbits/s    frame= 3157 fps= 20 q=0.0 size=     376kB time=00:02:09.37 bitrate=  23.8kbits/s    frame= 3167 fps= 20 q=0.0 size=     376kB time=00:02:09.79 bitrate=  23.7kbits/s    frame= 3178 fps= 20 q=0.0 size=     376kB time=00:02:10.25 bitrate=  23.7kbits/s    frame= 3188 fps= 20 q=0.0 size=     376kB time=00:02:10.66 bitrate=  23.6kbits/s    frame= 3198 fps= 20 q=0.0 size=     377kB time=00:02:11.08 bitrate=  23.6kbits/s    frame= 3209 fps= 20 q=0.0 size=     377kB time=00:02:11.54 bitrate=  23.5kbits/s    frame= 3219 fps= 20 q=0.0 size=     378kB time=00:02:11.95 bitrate=  23.5kbits/s    frame= 3230 fps= 20 q=0.0 size=     380kB time=00:02:12.41 bitrate=  23.5kbits/s    frame= 3241 fps= 20 q=0.0 size=     380kB time=00:02:12.87 bitrate=  23.4kbits/s    frame= 3251 fps= 20 q=0.0 size=     380kB time=00:02:13.29 bitrate=  23.4kbits/s    frame= 3261 fps= 20 q=0.0 size=     381kB time=00:02:13.70 bitrate=  23.3kbits/s    frame= 3271 fps= 20 q=0.0 size=     381kB time=00:02:14.12 bitrate=  23.3kbits/s    [NULL @ 0x2679c40] Invalid maxval: 0
    Last message repeated 1 times
frame= 3282 fps= 20 q=0.0 size=     381kB time=00:02:14.58 bitrate=  23.2kbits/s    frame= 3293 fps= 20 q=0.0 size=     381kB time=00:02:15.04 bitrate=  23.1kbits/s    frame= 3304 fps= 20 q=0.0 size=     382kB time=00:02:15.50 bitrate=  23.1kbits/s    frame= 3314 fps= 20 q=0.0 size=     382kB time=00:02:15.91 bitrate=  23.0kbits/s    frame= 3325 fps= 20 q=0.0 size=     383kB time=00:02:16.37 bitrate=  23.0kbits/s    frame= 3336 fps= 20 q=0.0 size=     383kB time=00:02:16.83 bitrate=  22.9kbits/s    frame= 3347 fps= 20 q=0.0 size=     383kB time=00:02:17.29 bitrate=  22.9kbits/s    frame= 3357 fps= 20 q=0.0 size=     383kB time=00:02:17.70 bitrate=  22.8kbits/s    frame= 3367 fps= 20 q=0.0 size=     385kB time=00:02:18.12 bitrate=  22.8kbits/s    frame= 3377 fps= 20 q=0.0 size=     385kB time=00:02:18.54 bitrate=  22.8kbits/s    frame= 3388 fps= 20 q=0.0 size=     386kB time=00:02:19.00 bitrate=  22.8kbits/s    frame= 3399 fps= 20 q=0.0 size=     387kB time=00:02:19.45 bitrate=  22.8kbits/s    frame= 3409 fps= 20 q=0.0 size=     388kB time=00:02:19.87 bitrate=  22.7kbits/s    frame= 3420 fps= 20 q=0.0 size=     388kB time=00:02:20.33 bitrate=  22.6kbits/s    frame= 3430 fps= 20 q=0.0 size=     388kB time=00:02:20.75 bitrate=  22.6kbits/s    frame= 3441 fps= 20 q=0.0 size=     388kB time=00:02:21.20 bitrate=  22.5kbits/s    frame= 3452 fps= 20 q=0.0 size=     388kB time=00:02:21.66 bitrate=  22.5kbits/s    frame= 3463 fps= 20 q=0.0 size=     389kB time=00:02:22.12 bitrate=  22.4kbits/s    frame= 3473 fps= 20 q=0.0 size=     389kB time=00:02:22.54 bitrate=  22.4kbits/s    frame= 3483 fps= 20 q=0.0 size=     390kB time=00:02:22.95 bitrate=  22.3kbits/s    frame= 3494 fps= 20 q=0.0 size=     390kB time=00:02:23.41 bitrate=  22.3kbits/s    frame= 3504 fps= 20 q=0.0 size=     390kB time=00:02:23.83 bitrate=  22.2kbits/s    frame= 3515 fps= 20 q=0.0 size=     392kB time=00:02:24.29 bitrate=  22.3kbits/s    frame= 3525 fps= 20 q=0.0 size=     393kB time=00:02:24.70 bitrate=  22.2kbits/s    frame= 3536 fps= 20 q=0.0 size=     393kB time=00:02:25.16 bitrate=  22.2kbits/s    frame= 3547 fps= 20 q=0.0 size=     394kB time=00:02:25.62 bitrate=  22.2kbits/s    frame= 3558 fps= 20 q=0.0 size=     395kB time=00:02:26.08 bitrate=  22.1kbits/s    frame= 3569 fps= 20 q=0.0 size=     397kB time=00:02:26.54 bitrate=  22.2kbits/s    frame= 3579 fps= 20 q=0.0 size=     397kB time=00:02:26.95 bitrate=  22.1kbits/s    frame= 3590 fps= 20 q=0.0 size=     399kB time=00:02:27.41 bitrate=  22.2kbits/s    frame= 3601 fps= 20 q=0.0 size=     399kB time=00:02:27.87 bitrate=  22.1kbits/s    frame= 3611 fps= 20 q=0.0 size=     401kB time=00:02:28.29 bitrate=  22.2kbits/s    frame= 3621 fps= 20 q=0.0 size=     402kB time=00:02:28.70 bitrate=  22.2kbits/s    frame= 3632 fps= 20 q=0.0 size=     402kB time=00:02:29.16 bitrate=  22.1kbits/s    frame= 3642 fps= 20 q=0.0 size=     404kB time=00:02:29.58 bitrate=  22.1kbits/s    frame= 3652 fps= 20 q=0.0 size=     404kB time=00:02:30.00 bitrate=  22.1kbits/s    frame= 3662 fps= 20 q=0.0 size=     406kB time=00:02:30.41 bitrate=  22.1kbits/s    frame= 3672 fps= 20 q=0.0 size=     406kB time=00:02:30.83 bitrate=  22.0kbits/s    frame= 3682 fps= 20 q=0.0 size=     406kB time=00:02:31.25 bitrate=  22.0kbits/s    frame= 3692 fps= 20 q=0.0 size=     406kB time=00:02:31.66 bitrate=  21.9kbits/s    frame= 3703 fps= 20 q=0.0 size=     409kB time=00:02:32.12 bitrate=  22.0kbits/s    frame= 3713 fps= 20 q=0.0 size=     410kB time=00:02:32.54 bitrate=  22.0kbits/s    frame= 3724 fps= 20 q=0.0 size=     410kB time=00:02:33.00 bitrate=  22.0kbits/s    frame= 3734 fps= 20 q=0.0 size=     412kB time=00:02:33.41 bitrate=  22.0kbits/s    frame= 3744 fps= 20 q=0.0 size=     412kB time=00:02:33.83 bitrate=  21.9kbits/s    frame= 3754 fps= 20 q=0.0 size=     413kB time=00:02:34.25 bitrate=  21.9kbits/s    frame= 3765 fps= 20 q=0.0 size=     414kB time=00:02:34.70 bitrate=  21.9kbits/s    frame= 3776 fps= 20 q=0.0 size=     414kB time=00:02:35.16 bitrate=  21.9kbits/s    frame= 3787 fps= 20 q=0.0 size=     415kB time=00:02:35.62 bitrate=  21.9kbits/s    frame= 3797 fps= 20 q=0.0 size=     416kB time=00:02:36.04 bitrate=  21.8kbits/s    frame= 3808 fps= 20 q=0.0 size=     417kB time=00:02:36.50 bitrate=  21.8kbits/s    frame= 3819 fps= 20 q=0.0 size=     417kB time=00:02:36.95 bitrate=  21.8kbits/s    frame= 3829 fps= 20 q=0.0 size=     418kB time=00:02:37.37 bitrate=  21.8kbits/s    frame= 3840 fps= 20 q=0.0 size=     418kB time=00:02:37.83 bitrate=  21.7kbits/s    frame= 3850 fps= 20 q=0.0 size=     419kB time=00:02:38.25 bitrate=  21.7kbits/s    frame= 3860 fps= 20 q=0.0 size=     419kB time=00:02:38.66 bitrate=  21.7kbits/s    frame= 3870 fps= 20 q=0.0 size=     420kB time=00:02:39.08 bitrate=  21.6kbits/s    frame= 3880 fps= 20 q=0.0 size=     421kB time=00:02:39.50 bitrate=  21.6kbits/s    frame= 3891 fps= 20 q=0.0 size=     421kB time=00:02:39.95 bitrate=  21.6kbits/s    frame= 3902 fps= 20 q=0.0 size=     422kB time=00:02:40.41 bitrate=  21.6kbits/s    frame= 3912 fps= 20 q=0.0 size=     423kB time=00:02:40.83 bitrate=  21.5kbits/s    frame= 3922 fps= 20 q=0.0 size=     423kB time=00:02:41.25 bitrate=  21.5kbits/s    frame= 3933 fps= 20 q=0.0 size=     423kB time=00:02:41.70 bitrate=  21.4kbits/s    frame= 3943 fps= 20 q=0.0 size=     424kB time=00:02:42.12 bitrate=  21.4kbits/s    frame= 3953 fps= 20 q=0.0 size=     425kB time=00:02:42.54 bitrate=  21.4kbits/s    frame= 3964 fps= 20 q=0.0 size=     427kB time=00:02:43.00 bitrate=  21.5kbits/s    frame= 3974 fps= 20 q=0.0 size=     428kB time=00:02:43.41 bitrate=  21.4kbits/s    frame= 3984 fps= 20 q=0.0 size=     429kB time=00:02:43.83 bitrate=  21.5kbits/s    frame= 3995 fps= 20 q=0.0 size=     430kB time=00:02:44.29 bitrate=  21.5kbits/s    frame= 4005 fps= 20 q=0.0 size=     431kB time=00:02:44.70 bitrate=  21.4kbits/s    frame= 4015 fps= 20 q=0.0 size=     432kB time=00:02:45.12 bitrate=  21.4kbits/s    frame= 4026 fps= 20 q=0.0 size=     432kB time=00:02:45.58 bitrate=  21.4kbits/s    frame= 4036 fps= 20 q=0.0 size=     434kB time=00:02:46.00 bitrate=  21.4kbits/s    frame= 4047 fps= 20 q=0.0 size=     434kB time=00:02:46.45 bitrate=  21.3kbits/s    frame= 4058 fps= 20 q=0.0 size=     436kB time=00:02:46.91 bitrate=  21.4kbits/s    frame= 4068 fps= 20 q=0.0 size=     436kB time=00:02:47.33 bitrate=  21.4kbits/s    frame= 4078 fps= 20 q=0.0 size=     436kB time=00:02:47.75 bitrate=  21.3kbits/s    frame= 4088 fps= 20 q=0.0 size=     437kB time=00:02:48.16 bitrate=  21.3kbits/s    frame= 4098 fps= 20 q=0.0 size=     438kB time=00:02:48.58 bitrate=  21.3kbits/s    frame= 4108 fps= 20 q=0.0 size=     438kB time=00:02:49.00 bitrate=  21.2kbits/s    frame= 4119 fps= 20 q=0.0 size=     438kB time=00:02:49.45 bitrate=  21.2kbits/s    frame= 4130 fps= 20 q=0.0 size=     438kB time=00:02:49.91 bitrate=  21.1kbits/s    frame= 4140 fps= 20 q=0.0 size=     438kB time=00:02:50.33 bitrate=  21.1kbits/s    frame= 4150 fps= 20 q=0.0 size=     439kB time=00:02:50.75 bitrate=  21.0kbits/s    frame= 4161 fps= 20 q=0.0 size=     439kB time=00:02:51.20 bitrate=  21.0kbits/s    frame= 4172 fps= 20 q=0.0 size=     439kB time=00:02:51.66 bitrate=  20.9kbits/s    frame= 4183 fps= 20 q=0.0 size=     439kB time=00:02:52.12 bitrate=  20.9kbits/s    frame= 4193 fps= 20 q=0.0 size=     439kB time=00:02:52.54 bitrate=  20.9kbits/s    frame= 4204 fps= 20 q=0.0 size=     439kB time=00:02:53.00 bitrate=  20.8kbits/s    frame= 4214 fps= 20 q=0.0 size=     440kB time=00:02:53.41 bitrate=  20.8kbits/s    frame= 4224 fps= 20 q=0.0 size=     440kB time=00:02:53.83 bitrate=  20.7kbits/s    frame= 4234 fps= 20 q=0.0 size=     440kB time=00:02:54.25 bitrate=  20.7kbits/s    frame= 4244 fps= 20 q=0.0 size=     440kB time=00:02:54.66 bitrate=  20.6kbits/s    frame= 4255 fps= 20 q=0.0 size=     440kB time=00:02:55.12 bitrate=  20.6kbits/s    frame= 4266 fps= 20 q=0.0 size=     441kB time=00:02:55.58 bitrate=  20.6kbits/s    frame= 4276 fps= 20 q=0.0 size=     441kB time=00:02:56.00 bitrate=  20.5kbits/s    frame= 4286 fps= 20 q=0.0 size=     441kB time=00:02:56.41 bitrate=  20.5kbits/s    frame= 4296 fps= 20 q=0.0 size=     441kB time=00:02:56.83 bitrate=  20.4kbits/s    frame= 4307 fps= 20 q=0.0 size=     441kB time=00:02:57.29 bitrate=  20.4kbits/s    frame= 4318 fps= 20 q=0.0 size=     442kB time=00:02:57.75 bitrate=  20.3kbits/s    frame= 4329 fps= 20 q=0.0 size=     442kB time=00:02:58.20 bitrate=  20.3kbits/s    frame= 4340 fps= 20 q=0.0 size=     442kB time=00:02:58.66 bitrate=  20.3kbits/s    frame= 4350 fps= 20 q=0.0 size=     442kB time=00:02:59.08 bitrate=  20.2kbits/s    frame= 4360 fps= 20 q=0.0 size=     442kB time=00:02:59.50 bitrate=  20.2kbits/s    frame= 4370 fps= 20 q=0.0 size=     442kB time=00:02:59.91 bitrate=  20.1kbits/s    frame= 4381 fps= 20 q=0.0 size=     443kB time=00:03:00.37 bitrate=  20.1kbits/s    frame= 4392 fps= 20 q=0.0 size=     443kB time=00:03:00.83 bitrate=  20.1kbits/s    frame= 4402 fps= 20 q=0.0 size=     443kB time=00:03:01.25 bitrate=  20.0kbits/s    frame= 4413 fps= 20 q=0.0 size=     443kB time=00:03:01.70 bitrate=  20.0kbits/s    frame= 4423 fps= 20 q=0.0 size=     443kB time=00:03:02.12 bitrate=  19.9kbits/s    frame= 4433 fps= 20 q=0.0 size=     444kB time=00:03:02.54 bitrate=  19.9kbits/s    frame= 4443 fps= 20 q=0.0 size=     444kB time=00:03:02.95 bitrate=  19.9kbits/s    frame= 4453 fps= 20 q=0.0 size=     444kB time=00:03:03.37 bitrate=  19.8kbits/s    frame= 4464 fps= 20 q=0.0 size=     444kB time=00:03:03.83 bitrate=  19.8kbits/s    frame= 4474 fps= 20 q=0.0 size=     444kB time=00:03:04.25 bitrate=  19.8kbits/s    frame= 4485 fps= 20 q=0.0 size=     445kB time=00:03:04.70 bitrate=  19.7kbits/s    frame= 4496 fps= 20 q=0.0 size=     445kB time=00:03:05.16 bitrate=  19.7kbits/s    frame= 4506 fps= 20 q=0.0 size=     445kB time=00:03:05.58 bitrate=  19.6kbits/s    frame= 4516 fps= 20 q=0.0 size=     445kB time=00:03:06.00 bitrate=  19.6kbits/s    frame= 4526 fps= 20 q=0.0 size=     445kB time=00:03:06.41 bitrate=  19.6kbits/s    frame= 4536 fps= 20 q=0.0 size=     445kB time=00:03:06.83 bitrate=  19.5kbits/s    frame= 4547 fps= 20 q=0.0 size=     446kB time=00:03:07.29 bitrate=  19.5kbits/s    frame= 4558 fps= 20 q=0.0 size=     446kB time=00:03:07.75 bitrate=  19.5kbits/s    frame= 4568 fps= 20 q=0.0 size=     446kB time=00:03:08.16 bitrate=  19.4kbits/s    frame= 4578 fps= 20 q=0.0 size=     446kB time=00:03:08.58 bitrate=  19.4kbits/s    frame= 4588 fps= 20 q=0.0 size=     446kB time=00:03:09.00 bitrate=  19.4kbits/s    frame= 4598 fps= 20 q=0.0 size=     447kB time=00:03:09.41 bitrate=  19.3kbits/s    frame= 4608 fps= 20 q=0.0 size=     447kB time=00:03:09.83 bitrate=  19.3kbits/s    frame= 4619 fps= 20 q=0.0 size=     447kB time=00:03:10.29 bitrate=  19.2kbits/s    frame= 4629 fps= 20 q=0.0 size=     447kB time=00:03:10.70 bitrate=  19.2kbits/s    frame= 4640 fps= 20 q=0.0 size=     447kB time=00:03:11.16 bitrate=  19.2kbits/s    frame= 4650 fps= 20 q=0.0 size=     448kB time=00:03:11.58 bitrate=  19.1kbits/s    frame= 4661 fps= 20 q=0.0 size=     448kB time=00:03:12.04 bitrate=  19.1kbits/s    frame= 4671 fps= 20 q=0.0 size=     448kB time=00:03:12.45 bitrate=  19.1kbits/s    frame= 4682 fps= 20 q=0.0 size=     448kB time=00:03:12.91 bitrate=  19.0kbits/s    frame= 4693 fps= 20 q=0.0 size=     448kB time=00:03:13.37 bitrate=  19.0kbits/s    frame= 4704 fps= 20 q=0.0 size=     448kB time=00:03:13.83 bitrate=  19.0kbits/s    frame= 4715 fps= 20 q=0.0 size=     449kB time=00:03:14.29 bitrate=  18.9kbits/s    frame= 4724 fps= 20 q=0.0 size=     449kB time=00:03:14.66 bitrate=  18.9kbits/s    frame= 4735 fps= 20 q=0.0 size=     449kB time=00:03:15.12 bitrate=  18.9kbits/s    frame= 4745 fps= 20 q=0.0 size=     449kB time=00:03:15.54 bitrate=  18.8kbits/s    frame= 4756 fps= 20 q=0.0 size=     449kB time=00:03:16.00 bitrate=  18.8kbits/s    frame= 4760 fps= 20 q=-1.0 Lsize=     506kB time=00:03:18.25 bitrate=  20.9kbits/s    
video:450kB audio:0kB subtitle:0kB other streams:0kB global headers:0kB muxing overhead: 12.432125%
[libx264 @ 0x267c8c0] frame I:183   Avg QP: 0.35  size:  1145
[libx264 @ 0x267c8c0] frame P:1402  Avg QP: 0.61  size:   137
[libx264 @ 0x267c8c0] frame B:3175  Avg QP: 1.06  size:    19
[libx264 @ 0x267c8c0] consecutive B-frames:  8.8%  5.9%  2.7% 82.6%
[libx264 @ 0x267c8c0] mb I  I16..4: 87.6%  3.2%  9.1%
[libx264 @ 0x267c8c0] mb P  I16..4:  6.6%  0.1%  0.6%  P16..4:  0.6%  0.2%  0.1%  0.0%  0.0%    skip:91.8%
[libx264 @ 0x267c8c0] mb B  I16..4:  0.0%  0.0%  0.0%  B16..8:  0.1%  0.0%  0.0%  direct: 0.0%  skip:99.9%  L0:38.7% L1:58.4% BI: 2.9%
[libx264 @ 0x267c8c0] final ratefactor: -29.14
[libx264 @ 0x267c8c0] 8x8 transform intra:2.8% inter:30.3%
[libx264 @ 0x267c8c0] coded y,uvDC,uvAC intra: 4.8% 0.0% 0.0% inter: 0.1% 0.0% 0.0%
[libx264 @ 0x267c8c0] i16 v,h,dc,p: 88%  9%  3%  0%
[libx264 @ 0x267c8c0] i8 v,h,dc,ddl,ddr,vr,hd,vl,hu: 64% 11% 24%  0%  0%  0%  0%  0%  0%
[libx264 @ 0x267c8c0] i4 v,h,dc,ddl,ddr,vr,hd,vl,hu: 54% 20% 18%  2%  2%  1%  1%  0%  1%
[libx264 @ 0x267c8c0] i8c dc,h,v,p: 100%  0%  0%  0%
[libx264 @ 0x267c8c0] Weighted P-Frames: Y:7.4% UV:0.0%
[libx264 @ 0x267c8c0] ref P L0: 73.4% 14.1%  9.3%  2.9%  0.3%
[libx264 @ 0x267c8c0] ref B L0: 87.8% 11.9%  0.3%
[libx264 @ 0x267c8c0] ref B L1: 98.1%  1.9%
[libx264 @ 0x267c8c0] kb/s:18.57
@ 0x267c8c0] ref P L0: 67.2% 22.2%  9.5%  1.1%
[libx264 @ 0x267c8c0] ref B L0: 89.3% 10.7%
[libx264 @ 0x267c8c0] ref B L1: 98.9%  1.1%
[libx264 @ 0x267c8c0] kb/s:16.59
,ddr,vr,hd,vl,hu: 55% 19% 18%  2%  2%  1%  1%  0%  1%
[libx264 @ 0x267c8c0] i8c dc,h,v,p: 100%  0%  0%  0%
[libx264 @ 0x267c8c0] Weighted P-Frames: Y:7.7% UV:0.0%
[libx264 @ 0x267c8c0] ref P L0: 77.5% 10.3% 11.2%  0.9%
[libx264 @ 0x267c8c0] ref B L0: 79.3% 20.2%  0.5%
[libx264 @ 0x267c8c0] ref B L1: 97.8%  2.2%
[libx264 @ 0x267c8c0] kb/s:21.36
6..4:  0.0%  0.0%  0.0%  B16..8:  0.1%  0.0%  0.0%  direct: 0.0%  skip:99.8%  L0:33.9% L1:64.3% BI: 1.7%
[libx264 @ 0x267c8c0] final ratefactor: -28.72
[libx264 @ 0x267c8c0] 8x8 transform intra:3.0% inter:27.4%
[libx264 @ 0x267c8c0] coded y,uvDC,uvAC intra: 4.5% 0.0% 0.0% inter: 0.1% 0.0% 0.0%
[libx264 @ 0x267c8c0] i16 v,h,dc,p: 89%  8%  3%  0%
[libx264 @ 0x267c8c0] i8 v,h,dc,ddl,ddr,vr,hd,vl,hu: 66% 11% 22%  0%  0%  0%  0%  0%  0%
[libx264 @ 0x267c8c0] i4 v,h,dc,ddl,ddr,vr,hd,vl,hu: 54% 17% 20%  3%  2%  0%  1%  0%  1%
[libx264 @ 0x267c8c0] i8c dc,h,v,p: 100%  0%  0%  0%
[libx264 @ 0x267c8c0] Weighted P-Frames: Y:8.8% UV:0.0%
[libx264 @ 0x267c8c0] ref P L0: 65.9% 15.9% 13.7%  4.3%  0.1%
[libx264 @ 0x267c8c0] ref B L0: 85.0% 13.2%  1.8%
[libx264 @ 0x267c8c0] ref B L1: 98.2%  1.8%
[libx264 @ 0x267c8c0] kb/s:19.73
0] ref P L0: 79.7%  8.8% 10.3%  1.1%
[libx264 @ 0x267c8c0] ref B L0: 87.4% 12.2%  0.4%
[libx264 @ 0x267c8c0] ref B L1: 98.2%  1.8%
[libx264 @ 0x267c8c0] kb/s:26.26
=======
frame=   34 fps=0.0 q=0.0 size=       0kB time=00:00:00.00 bitrate=N/A    frame=   44 fps= 41 q=0.0 size=       0kB time=00:00:00.00 bitrate=N/A    frame=   54 fps= 34 q=25.0 size=       2kB time=00:00:00.08 bitrate= 198.4kbits/s    frame=   65 fps= 31 q=11.0 size=       4kB time=00:00:00.54 bitrate=  60.2kbits/s    frame=   76 fps= 29 q=6.0 size=       5kB time=00:00:01.00 bitrate=  40.3kbits/s    frame=   86 fps= 27 q=0.0 size=       5kB time=00:00:01.41 bitrate=  29.5kbits/s    frame=   97 fps= 26 q=0.0 size=       7kB time=00:00:01.87 bitrate=  30.5kbits/s    frame=  108 fps= 25 q=0.0 size=       7kB time=00:00:02.33 bitrate=  25.2kbits/s    frame=  119 fps= 25 q=0.0 size=       9kB time=00:00:02.79 bitrate=  26.3kbits/s    frame=  130 fps= 24 q=0.0 size=      11kB time=00:00:03.25 bitrate=  27.3kbits/s    frame=  140 fps= 24 q=0.0 size=      11kB time=00:00:03.66 bitrate=  24.6kbits/s    frame=  150 fps= 24 q=0.0 size=      13kB time=00:00:04.08 bitrate=  25.8kbits/s    frame=  160 fps= 23 q=0.0 size=      14kB time=00:00:04.50 bitrate=  26.3kbits/s    frame=  171 fps= 23 q=0.0 size=      18kB time=00:00:04.95 bitrate=  29.4kbits/s    frame=  181 fps= 23 q=0.0 size=      20kB time=00:00:05.37 bitrate=  30.5kbits/s    frame=  192 fps= 23 q=0.0 size=      23kB time=00:00:05.83 bitrate=  31.9kbits/s    frame=  202 fps= 22 q=0.0 size=      23kB time=00:00:06.25 bitrate=  30.0kbits/s    frame=  212 fps= 22 q=0.0 size=      27kB time=00:00:06.66 bitrate=  32.6kbits/s    frame=  222 fps= 22 q=0.0 size=      30kB time=00:00:07.08 bitrate=  34.7kbits/s    frame=  233 fps= 22 q=0.0 size=      33kB time=00:00:07.54 bitrate=  35.7kbits/s    frame=  244 fps= 22 q=0.0 size=      33kB time=00:00:08.00 bitrate=  33.9kbits/s    frame=  254 fps= 22 q=0.0 size=      36kB time=00:00:08.41 bitrate=  35.2kbits/s    frame=  265 fps= 22 q=0.0 size=      36kB time=00:00:08.87 bitrate=  33.6kbits/s    frame=  275 fps= 22 q=0.0 size=      38kB time=00:00:09.29 bitrate=  33.6kbits/s    frame=  286 fps= 22 q=0.0 size=      41kB time=00:00:09.75 bitrate=  34.5kbits/s    frame=  297 fps= 22 q=0.0 size=      45kB time=00:00:10.20 bitrate=  36.3kbits/s    frame=  308 fps= 22 q=0.0 size=      51kB time=00:00:10.66 bitrate=  39.1kbits/s    frame=  318 fps= 21 q=0.0 size=      52kB time=00:00:11.08 bitrate=  38.3kbits/s    frame=  329 fps= 21 q=0.0 size=      53kB time=00:00:11.54 bitrate=  37.9kbits/s    frame=  340 fps= 21 q=0.0 size=      55kB time=00:00:12.00 bitrate=  37.8kbits/s    frame=  350 fps= 21 q=0.0 size=      56kB time=00:00:12.41 bitrate=  37.2kbits/s    frame=  360 fps= 21 q=0.0 size=      57kB time=00:00:12.83 bitrate=  36.1kbits/s    frame=  370 fps= 21 q=0.0 size=      58kB time=00:00:13.25 bitrate=  36.0kbits/s    frame=  380 fps= 21 q=0.0 size=      60kB time=00:00:13.66 bitrate=  35.7kbits/s    frame=  390 fps= 21 q=0.0 size=      60kB time=00:00:14.08 bitrate=  35.2kbits/s    frame=  401 fps= 21 q=0.0 size=      62kB time=00:00:14.54 bitrate=  35.2kbits/s    frame=  411 fps= 21 q=0.0 size=      63kB time=00:00:14.95 bitrate=  34.3kbits/s    frame=  422 fps= 21 q=0.0 size=      64kB time=00:00:15.41 bitrate=  33.8kbits/s    frame=  432 fps= 21 q=0.0 size=      65kB time=00:00:15.83 bitrate=  33.6kbits/s    frame=  435 fps= 21 q=-1.0 Lsize=      76kB time=00:00:18.04 bitrate=  34.3kbits/s    
video:70kB audio:0kB subtitle:0kB other streams:0kB global headers:0kB muxing overhead: 8.414240%
[libx264 @ 0x267c8c0] frame I:34    Avg QP: 1.13  size:  1213
[libx264 @ 0x267c8c0] frame P:147   Avg QP: 2.31  size:   157
[libx264 @ 0x267c8c0] frame B:254   Avg QP: 2.66  size:    25
[libx264 @ 0x267c8c0] consecutive B-frames: 15.6% 12.9% 20.0% 51.5%
[libx264 @ 0x267c8c0] mb I  I16..4: 82.4%  9.2%  8.4%
[libx264 @ 0x267c8c0] mb P  I16..4: 10.7%  0.8%  0.6%  P16..4:  1.2%  0.3%  0.1%  0.0%  0.0%    skip:86.3%
[libx264 @ 0x267c8c0] mb B  I16..4:  0.0%  0.0%  0.0%  B16..8:  0.5%  0.0%  0.0%  direct: 0.1%  skip:99.3%  L0:31.0% L1:67.6% BI: 1.4%
[libx264 @ 0x267c8c0] final ratefactor: -17.35
[libx264 @ 0x267c8c0] 8x8 transform intra:8.5% inter:24.6%
[libx264 @ 0x267c8c0] coded y,uvDC,uvAC intra: 4.2% 0.0% 0.0% inter: 0.2% 0.0% 0.0%
[libx264 @ 0x267c8c0] i16 v,h,dc,p: 93%  4%  3%  0%
[libx264 @ 0x267c8c0] i8 v,h,dc,ddl,ddr,vr,hd,vl,hu: 80%  2% 17%  0%  0%  0%  0%  0%  0%
[libx264 @ 0x267c8c0] i4 v,h,dc,ddl,ddr,vr,hd,vl,hu: 56% 13% 21%  3%  3%  0%  2%  0%  1%
[libx264 @ 0x267c8c0] i8c dc,h,v,p: 100%  0%  0%  0%
[libx264 @ 0x267c8c0] Weighted P-Frames: Y:14.3% UV:0.0%
[libx264 @ 0x267c8c0] ref P L0: 61.6% 13.5%  6.7% 18.2%
[libx264 @ 0x267c8c0] ref B L0: 87.4% 11.3%  1.3%
[libx264 @ 0x267c8c0] ref B L1: 94.6%  5.4%
[libx264 @ 0x267c8c0] kb/s:31.19
ps= 20 q=0.0 size=      88kB time=00:00:23.62 bitrate=  30.4kbits/s    frame=  619 fps= 20 q=-1.0 Lsize=     108kB time=00:00:25.70 bitrate=  34.3kbits/s    
video:100kB audio:0kB subtitle:0kB other streams:0kB global headers:0kB muxing overhead: 8.057861%
[libx264 @ 0x267c8c0] frame I:52    Avg QP: 0.93  size:  1228
[libx264 @ 0x267c8c0] frame P:187   Avg QP: 1.49  size:   141
[libx264 @ 0x267c8c0] frame B:380   Avg QP: 2.37  size:    29
[libx264 @ 0x267c8c0] consecutive B-frames: 12.8% 11.6% 13.6% 62.0%
[libx264 @ 0x267c8c0] mb I  I16..4: 83.6%  6.7%  9.7%
[libx264 @ 0x267c8c0] mb P  I16..4:  5.1%  0.7%  0.5%  P16..4:  0.6%  0.2%  0.1%  0.0%  0.0%    skip:92.7%
[libx264 @ 0x267c8c0] mb B  I16..4:  0.0%  0.0%  0.0%  B16..8:  0.3%  0.1%  0.0%  direct: 0.1%  skip:99.5%  L0:35.9% L1:59.5% BI: 4.6%
[libx264 @ 0x267c8c0] final ratefactor: -20.11
[libx264 @ 0x267c8c0] 8x8 transform intra:7.5% inter:27.0%
[libx264 @ 0x267c8c0] coded y,uvDC,uvAC intra: 5.2% 0.0% 0.0% inter: 0.2% 0.0% 0.0%
[libx264 @ 0x267c8c0] i16 v,h,dc,p: 93%  4%  2%  0%
[libx264 @ 0x267c8c0] i8 v,h,dc,ddl,ddr,vr,hd,vl,hu: 83%  1% 16%  0%  0%  0%  0%  0%  0%
[libx264 @ 0x267c8c0] i4 v,h,dc,ddl,ddr,vr,hd,vl,hu: 58% 13% 20%  2%  3%  0%  2%  0%  1%
[libx264 @ 0x267c8c0] i8c dc,h,v,p: 100%  0%  0%  0%
[libx264 @ 0x267c8c0] Weighted P-Frames: Y:18.7% UV:0.0%
[libx264 @ 0x267c8c0] ref P L0: 73.8% 16.5%  8.0%  1.1%  0.5%
[libx264 @ 0x267c8c0] ref B L0: 81.6% 12.2%  6.2%
[libx264 @ 0x267c8c0] ref B L1: 97.0%  3.0%
[libx264 @ 0x267c8c0] kb/s:31.43
frame=  816 fps= 21 q=0.0 size=     148kB time=00:00:31.83 bitrate=  38.1kbits/s    frame=  827 fps= 21 q=0.0 size=     151kB time=00:00:32.29 bitrate=  38.2kbits/s    frame=  838 fps= 21 q=0.0 size=     153kB time=00:00:32.75 bitrate=  38.3kbits/s    frame=  849 fps= 21 q=0.0 size=     155kB time=00:00:33.20 bitrate=  38.3kbits/s    frame=  860 fps= 21 q=0.0 size=     158kB time=00:00:33.66 bitrate=  38.4kbits/s    frame=  870 fps= 21 q=0.0 size=     160kB time=00:00:34.08 bitrate=  38.4kbits/s    frame=  881 fps= 21 q=0.0 size=     165kB time=00:00:34.54 bitrate=  39.1kbits/s    frame=  891 fps= 21 q=0.0 size=     166kB time=00:00:34.95 bitrate=  38.9kbits/s    frame=  901 fps= 21 q=0.0 size=     169kB time=00:00:35.37 bitrate=  39.2kbits/s    frame=  910 fps= 20 q=0.0 size=     170kB time=00:00:35.75 bitrate=  39.1kbits/s    frame=  920 fps= 20 q=0.0 size=     174kB time=00:00:36.16 bitrate=  39.3kbits/s    frame=  930 fps= 20 q=0.0 size=     175kB time=00:00:36.58 bitrate=  39.2kbits/s    frame=  941 fps= 20 q=0.0 size=     179kB time=00:00:37.04 bitrate=  39.5kbits/s    frame=  952 fps= 20 q=0.0 size=     181kB time=00:00:37.50 bitrate=  39.5kbits/s    frame=  963 fps= 20 q=0.0 size=     184kB time=00:00:37.95 bitrate=  39.7kbits/s    frame=  973 fps= 20 q=0.0 size=     187kB time=00:00:38.37 bitrate=  40.0kbits/s    frame=  982 fps= 20 q=0.0 size=     190kB time=00:00:38.75 bitrate=  40.1kbits/s    frame=  992 fps= 20 q=0.0 size=     193kB time=00:00:39.16 bitrate=  40.3kbits/s    frame= 1003 fps= 20 q=0.0 size=     194kB time=00:00:39.62 bitrate=  40.2kbits/s    frame= 1013 fps= 20 q=0.0 size=     198kB time=00:00:40.04 bitrate=  40.4kbits/s    frame= 1024 fps= 20 q=0.0 size=     201kB time=00:00:40.50 bitrate=  40.6kbits/s    frame= 1034 fps= 20 q=0.0 size=     201kB time=00:00:40.91 bitrate=  40.3kbits/s    frame= 1045 fps= 20 q=0.0 size=     204kB time=00:00:41.37 bitrate=  40.5kbits/s    frame= 1055 fps= 20 q=0.0 size=     207kB time=00:00:41.79 bitrate=  40.5kbits/s    frame= 1065 fps= 20 q=0.0 size=     210kB time=00:00:42.20 bitrate=  40.7kbits/s    frame= 1076 fps= 20 q=0.0 size=     212kB time=00:00:42.66 bitrate=  40.7kbits/s    frame= 1086 fps= 20 q=0.0 size=     214kB time=00:00:43.08 bitrate=  40.8kbits/s    frame= 1096 fps= 20 q=0.0 size=     216kB time=00:00:43.50 bitrate=  40.7kbits/s    frame= 1107 fps= 20 q=0.0 size=     218kB time=00:00:43.95 bitrate=  40.5kbits/s    frame= 1117 fps= 20 q=0.0 size=     219kB time=00:00:44.37 bitrate=  40.4kbits/s    frame= 1127 fps= 20 q=0.0 size=     220kB time=00:00:44.79 bitrate=  40.3kbits/s    frame= 1137 fps= 20 q=0.0 size=     224kB time=00:00:45.20 bitrate=  40.5kbits/s    frame= 1147 fps= 20 q=0.0 size=     225kB time=00:00:45.62 bitrate=  40.4kbits/s    frame= 1157 fps= 20 q=0.0 size=     228kB time=00:00:46.04 bitrate=  40.6kbits/s    frame= 1168 fps= 20 q=0.0 size=     231kB time=00:00:46.50 bitrate=  40.7kbits/s    frame= 1179 fps= 20 q=0.0 size=     235kB time=00:00:46.95 bitrate=  41.0kbits/s    frame= 1190 fps= 20 q=0.0 size=     237kB time=00:00:47.41 bitrate=  40.9kbits/s    frame= 1200 fps= 20 q=0.0 size=     237kB time=00:00:47.83 bitrate=  40.6kbits/s    frame= 1210 fps= 20 q=0.0 size=     237kB time=00:00:48.25 bitrate=  40.3kbits/s    frame= 1221 fps= 20 q=0.0 size=     238kB time=00:00:48.70 bitrate=  40.1kbits/s    frame= 1227 fps= 20 q=-1.0 Lsize=     257kB time=00:00:51.04 bitrate=  41.3kbits/s    
video:242kB audio:0kB subtitle:0kB other streams:0kB global headers:0kB muxing overhead: 6.233936%
[libx264 @ 0x267c8c0] frame I:134   Avg QP: 0.37  size:  1071
[libx264 @ 0x267c8c0] frame P:429   Avg QP: 1.28  size:   210
[libx264 @ 0x267c8c0] frame B:664   Avg QP: 1.97  size:    20
[libx264 @ 0x267c8c0] consecutive B-frames: 19.3% 20.2% 16.1% 44.3%
[libx264 @ 0x267c8c0] mb I  I16..4: 86.5%  4.0%  9.6%
[libx264 @ 0x267c8c0] mb P  I16..4: 12.5%  0.5%  1.1%  P16..4:  0.9%  0.2%  0.1%  0.0%  0.0%    skip:84.6%
[libx264 @ 0x267c8c0] mb B  I16..4:  0.0%  0.0%  0.0%  B16..8:  0.3%  0.0%  0.0%  direct: 0.0%  skip:99.6%  L0:28.7% L1:70.8% BI: 0.5%
[libx264 @ 0x267c8c0] final ratefactor: -21.55
[libx264 @ 0x267c8c0] 8x8 transform intra:3.8% inter:42.6%
[libx264 @ 0x267c8c0] coded y,uvDC,uvAC intra: 5.1% 0.0% 0.0% inter: 0.2% 0.0% 0.0%
[libx264 @ 0x267c8c0] i16 v,h,dc,p: 90%  7%  3%  0%
[libx264 @ 0x267c8c0] i8 v,h,dc,ddl,ddr,vr,hd,vl,hu: 75% 10% 15%  0%  0%  0%  0%  0%  0%
[libx264 @ 0x267c8c0] i4 v,h,dc,ddl,ddr,vr,hd,vl,hu: 55% 20% 18%  2%  2%  0%  1%  0%  1%
[libx264 @ 0x267c8c0] i8c dc,h,v,p: 100%  0%  0%  0%
[libx264 @ 0x267c8c0] Weighted P-Frames: Y:10.7% UV:0.0%
[libx264 @ 0x267c8c0] ref P L0: 62.9% 14.7%  5.9% 16.5%
[libx264 @ 0x267c8c0] ref B L0: 89.4%  7.2%  3.4%
[libx264 @ 0x267c8c0] ref B L1: 88.4% 11.6%
[libx264 @ 0x267c8c0] kb/s:38.67
%  0.4%
[libx264 @ 0x267c8c0] ref B L1: 93.5%  6.5%
[libx264 @ 0x267c8c0] kb/s:34.67
2650e00] mb P  I16..4: 39.9%  1.2%  3.5%  P16..4:  5.0%  0.6%  0.3%  0.0%  0.0%    skip:49.5%
[libx264 @ 0000000002650e00] mb B  I16..4:  0.1%  0.0%  0.0%  B16..8:  0.6%  0.0%  0.0%  direct: 0.1%  skip:99.2%  L0:38.9% L1:60.9% BI: 0.3%
[libx264 @ 0000000002650e00] final ratefactor: -18.51
[libx264 @ 0000000002650e00] 8x8 transform intra:2.0% inter:36.3%
[libx264 @ 0000000002650e00] coded y,uvDC,uvAC intra: 6.2% 0.0% 0.0% inter: 0.5% 0.0% 0.0%
[libx264 @ 0000000002650e00] i16 v,h,dc,p: 89% 10%  2%  0%
[libx264 @ 0000000002650e00] i8 v,h,dc,ddl,ddr,vr,hd,vl,hu: 59% 15% 25%  0%  0%  0%  0%  0%  0%
[libx264 @ 0000000002650e00] i4 v,h,dc,ddl,ddr,vr,hd,vl,hu: 56% 25% 13%  1%  2%  0%  1%  1%  1%
[libx264 @ 0000000002650e00] i8c dc,h,v,p: 100%  0%  0%  0%
[libx264 @ 0000000002650e00] Weighted P-Frames: Y:4.6% UV:0.0%
[libx264 @ 0000000002650e00] ref P L0: 27.7%  4.0% 57.2% 11.0%  0.0%
[libx264 @ 0000000002650e00] ref B L0: 89.6%  9.2%  1.2%
[libx264 @ 0000000002650e00] ref B L1: 99.0%  1.0%
[libx264 @ 0000000002650e00] kb/s:62.28
0kbits/s speed=0.713x    frame= 1204 fps= 18 q=0.0 size=       0kB time=00:00:47.91 bitrate=   0.0kbits/s speed=0.713x    frame= 1214 fps= 18 q=0.0 size=       0kB time=00:00:48.33 bitrate=   0.0kbits/s speed=0.714x    frame= 1223 fps= 18 q=0.0 size=       0kB time=00:00:48.70 bitrate=   0.0kbits/s speed=0.714x    frame= 1233 fps= 18 q=0.0 size=       0kB time=00:00:49.12 bitrate=   0.0kbits/s speed=0.715x    frame= 1242 fps= 18 q=0.0 size=       0kB time=00:00:49.50 bitrate=   0.0kbits/s speed=0.715x    frame= 1251 fps= 18 q=0.0 size=       0kB time=00:00:49.87 bitrate=   0.0kbits/s speed=0.715x    frame= 1261 fps= 18 q=0.0 size=       0kB time=00:00:50.29 bitrate=   0.0kbits/s speed=0.715x    frame= 1270 fps= 18 q=0.0 size=       0kB time=00:00:50.66 bitrate=   0.0kbits/s speed=0.715x    frame= 1279 fps= 18 q=0.0 size=       0kB time=00:00:51.04 bitrate=   0.0kbits/s speed=0.715x    frame= 1289 fps= 18 q=0.0 size=       0kB time=00:00:51.45 bitrate=   0.0kbits/s speed=0.716x    frame= 1297 fps= 18 q=0.0 size=       0kB time=00:00:51.79 bitrate=   0.0kbits/s speed=0.716x    frame= 1304 fps= 18 q=0.0 size=       0kB time=00:00:52.08 bitrate=   0.0kbits/s speed=0.714x    frame= 1313 fps= 18 q=0.0 size=       0kB time=00:00:52.45 bitrate=   0.0kbits/s speed=0.714x    frame= 1323 fps= 18 q=0.0 size=       0kB time=00:00:52.87 bitrate=   0.0kbits/s speed=0.715x    frame= 1332 fps= 18 q=0.0 size=       0kB time=00:00:53.25 bitrate=   0.0kbits/s speed=0.714x    frame= 1342 fps= 18 q=0.0 size=       0kB time=00:00:53.66 bitrate=   0.0kbits/s speed=0.715x    frame= 1352 fps= 18 q=0.0 size=       0kB time=00:00:54.08 bitrate=   0.0kbits/s speed=0.716x    frame= 1359 fps= 18 q=0.0 size=       0kB time=00:00:54.37 bitrate=   0.0kbits/s speed=0.714x    frame= 1369 fps= 18 q=0.0 size=       0kB time=00:00:54.79 bitrate=   0.0kbits/s speed=0.715x    frame= 1378 fps= 18 q=0.0 size=       0kB time=00:00:55.16 bitrate=   0.0kbits/s speed=0.715x    frame= 1387 fps= 18 q=0.0 size=       0kB time=00:00:55.54 bitrate=   0.0kbits/s speed=0.715x    frame= 1397 fps= 18 q=0.0 size=       0kB time=00:00:55.95 bitrate=   0.0kbits/s speed=0.716x    frame= 1405 fps= 18 q=0.0 size=       0kB time=00:00:56.29 bitrate=   0.0kbits/s speed=0.716x    frame= 1416 fps= 18 q=0.0 size=       0kB time=00:00:56.75 bitrate=   0.0kbits/s speed=0.716x    frame= 1426 fps= 18 q=0.0 size=       0kB time=00:00:57.16 bitrate=   0.0kbits/s speed=0.717x    frame= 1433 fps= 18 q=0.0 size=       0kB time=00:00:57.45 bitrate=   0.0kbits/s speed=0.716x    frame= 1443 fps= 18 q=0.0 size=       0kB time=00:00:57.87 bitrate=   0.0kbits/s speed=0.717x    frame= 1453 fps= 18 q=0.0 size=       0kB time=00:00:58.29 bitrate=   0.0kbits/s speed=0.718x    frame= 1461 fps= 18 q=0.0 size=       0kB time=00:00:58.62 bitrate=   0.0kbits/s speed=0.718x    frame= 1471 fps= 18 q=0.0 size=       0kB time=00:00:59.04 bitrate=   0.0kbits/s speed=0.718x    frame= 1479 fps= 18 q=0.0 size=       0kB time=00:00:59.37 bitrate=   0.0kbits/s speed=0.718x    frame= 1486 fps= 18 q=0.0 size=       0kB time=00:00:59.66 bitrate=   0.0kbits/s speed=0.717x    frame= 1496 fps= 18 q=0.0 size=       0kB time=00:01:00.08 bitrate=   0.0kbits/s speed=0.718x    frame= 1506 fps= 18 q=0.0 size=       0kB time=00:01:00.50 bitrate=   0.0kbits/s speed=0.717x    frame= 1517 fps= 18 q=0.0 size=       0kB time=00:01:00.95 bitrate=   0.0kbits/s speed=0.718x    frame= 1527 fps= 18 q=0.0 size=       0kB time=00:01:01.37 bitrate=   0.0kbits/s speed=0.719x    frame= 1534 fps= 18 q=0.0 size=       0kB time=00:01:01.66 bitrate=   0.0kbits/s speed=0.717x    frame= 1545 fps= 18 q=0.0 size=       0kB time=00:01:02.12 bitrate=   0.0kbits/s speed=0.718x    frame= 1555 fps= 18 q=0.0 size=       0kB time=00:01:02.54 bitrate=   0.0kbits/s speed=0.719x    frame= 1564 fps= 18 q=0.0 size=       0kB time=00:01:02.91 bitrate=   0.0kbits/s speed=0.719x    frame= 1574 fps= 18 q=0.0 size=       0kB time=00:01:03.33 bitrate=   0.0kbits/s speed=0.719x    frame= 1582 fps= 18 q=0.0 size=       0kB time=00:01:03.66 bitrate=   0.0kbits/s speed=0.719x    frame= 1591 fps= 18 q=0.0 size=       0kB time=00:01:04.04 bitrate=   0.0kbits/s speed=0.719x    frame= 1601 fps= 18 q=0.0 size=       0kB time=00:01:04.45 bitrate=   0.0kbits/s speed=0.72x    frame= 1609 fps= 18 q=0.0 size=       0kB time=00:01:04.79 bitrate=   0.0kbits/s speed=0.719x    frame= 1619 fps= 18 q=0.0 size=       0kB time=00:01:05.20 bitrate=   0.0kbits/s speed=0.72x    frame= 1628 fps= 18 q=0.0 size=       0kB time=00:01:05.58 bitrate=   0.0kbits/s speed=0.72x    frame= 1639 fps= 18 q=0.0 size=       0kB time=00:01:06.04 bitrate=   0.0kbits/s speed=0.721x    frame= 1642 fps= 18 q=-1.0 Lsize=      66kB time=00:01:08.29 bitrate=   8.0kbits/s speed=0.743x    
video:46kB audio:0kB subtitle:0kB other streams:0kB global headers:0kB muxing overhead: 43.211021%
[libx264 @ 00000000029437c0] frame I:7     Avg QP: 2.69  size:  1603
[libx264 @ 00000000029437c0] frame P:416   Avg QP: 0.25  size:    33
[libx264 @ 00000000029437c0] frame B:1219  Avg QP: 0.25  size:    18
[libx264 @ 00000000029437c0] consecutive B-frames:  1.0%  0.1%  0.0% 98.9%
[libx264 @ 00000000029437c0] mb I  I16..4: 74.3% 10.7% 15.0%
[libx264 @ 00000000029437c0] mb P  I16..4:  0.2%  0.2%  0.0%  P16..4:  0.3%  0.1%  0.0%  0.0%  0.0%    skip:99.1%
[libx264 @ 00000000029437c0] mb B  I16..4:  0.0%  0.0%  0.0%  B16..8:  0.2%  0.0%  0.0%  direct: 0.0%  skip:99.8%  L0:42.1% L1:57.7% BI: 0.2%
[libx264 @ 00000000029437c0] final ratefactor: -29.55
[libx264 @ 00000000029437c0] 8x8 transform intra:19.6% inter:43.9%
[libx264 @ 00000000029437c0] coded y,uvDC,uvAC intra: 7.8% 0.0% 0.0% inter: 0.0% 0.0% 0.0%
[libx264 @ 00000000029437c0] i16 v,h,dc,p: 91%  6%  2%  1%
[libx264 @ 00000000029437c0] i8 v,h,dc,ddl,ddr,vr,hd,vl,hu: 68% 13% 19%  0%  0%  0%  0%  0%  0%
[libx264 @ 00000000029437c0] i4 v,h,dc,ddl,ddr,vr,hd,vl,hu: 57% 17% 17%  5%  2%  1%  1%  0%  1%
[libx264 @ 00000000029437c0] i8c dc,h,v,p: 100%  0%  0%  0%
[libx264 @ 00000000029437c0] Weighted P-Frames: Y:0.0% UV:0.0%
[libx264 @ 00000000029437c0] ref P L0: 88.4%  4.2%  5.6%  1.8%
[libx264 @ 00000000029437c0] ref B L0: 58.6% 41.4%
[libx264 @ 00000000029437c0] ref B L1: 98.4%  1.6%
[libx264 @ 00000000029437c0] kb/s:5.47
>>>>>>> 5c7db7f5128bb01b09d6abaae687f2320a3a74d4
